<?xml version="1.0" encoding="UTF-8"?>
<!DOCTYPE svg PUBLIC "-//W3C//DTD SVG 1.1//EN" "http://www.w3.org/Graphics/SVG/1.1/DTD/svg11.dtd">
<svg xmlns="http://www.w3.org/2000/svg" version="1.1" width="40px" height="40px" style="shape-rendering:geometricPrecision; text-rendering:geometricPrecision; image-rendering:optimizeQuality; fill-rule:evenodd; clip-rule:evenodd" xmlns:xlink="http://www.w3.org/1999/xlink">
<g><path style="opacity:1" fill="#fefffe" d="M -0.5,-0.5 C 12.8333,-0.5 26.1667,-0.5 39.5,-0.5C 39.5,12.8333 39.5,26.1667 39.5,39.5C 26.1667,39.5 12.8333,39.5 -0.5,39.5C -0.5,26.1667 -0.5,12.8333 -0.5,-0.5 Z"/></g>
<g><path style="opacity:1" fill="#000000" d="M 31.5,26.5 C 31.9528,27.4584 32.6195,28.2917 33.5,29C 32.6919,29.3076 32.0253,29.8076 31.5,30.5C 32.624,31.914 33.624,33.414 34.5,35C 33.8921,35.8699 33.0588,36.3699 32,36.5C 30.0067,34.6671 27.6734,33.3338 25,32.5C 23.745,34.5938 21.9116,35.5938 19.5,35.5C 4.1086,31.3864 0.275267,22.3864 8,8.5C 20.3854,0.558126 29.552,3.39146 35.5,17C 35.3937,19.3112 34.8937,21.8112 34,24.5C 33.5831,25.756 32.7498,26.4226 31.5,26.5 Z"/></g>
<g><path style="opacity:1" fill="#fefffe" d="M 16.5,6.5 C 18.3079,7.91791 18.9746,9.91791 18.5,12.5C 16.5714,12.7692 14.9047,12.2692 13.5,11C 14.3862,9.38533 15.3862,7.88533 16.5,6.5 Z"/></g>
<g><path style="opacity:1" fill="#fefffe" d="M 20.5,6.5 C 22.2959,7.79267 23.9625,9.29267 25.5,11C 24.0953,12.2692 22.4286,12.7692 20.5,12.5C 20.5,10.5 20.5,8.5 20.5,6.5 Z"/></g>
<g><path style="opacity:1" fill="#fefffe" d="M 11.5,8.5 C 12.7733,9.07683 12.7733,9.7435 11.5,10.5C 10.537,10.0302 10.537,9.3635 11.5,8.5 Z"/></g>
<g><path style="opacity:1" fill="#fefffe" d="M 26.5,8.5 C 27.6266,9.12167 28.6266,9.95501 29.5,11C 27.5106,11.5192 26.5106,10.6859 26.5,8.5 Z"/></g>
<g><path style="opacity:1" fill="#fefffe" d="M 7.5,12.5 C 11.283,14.6546 10.9497,16.3212 6.5,17.5C 6.62867,15.7839 6.962,14.1172 7.5,12.5 Z"/></g>
<g><path style="opacity:1" fill="#fefffe" d="M 28.5,13.5 C 31.5,13.1667 32.8333,14.5 32.5,17.5C 31.1667,17.5 29.8333,17.5 28.5,17.5C 28.5,16.1667 28.5,14.8333 28.5,13.5 Z"/></g>
<g><path style="opacity:1" fill="#fefffe" d="M 12.5,14.5 C 14.5,14.5 16.5,14.5 18.5,14.5C 18.5,15.5 18.5,16.5 18.5,17.5C 16.1432,17.6633 13.8098,17.4966 11.5,17C 12.2524,16.3292 12.5858,15.4959 12.5,14.5 Z"/></g>
<g><path style="opacity:1" fill="#fefffe" d="M 20.5,14.5 C 22.5,14.5 24.5,14.5 26.5,14.5C 26.5,15.5 26.5,16.5 26.5,17.5C 24.5,17.5 22.5,17.5 20.5,17.5C 20.5,16.5 20.5,15.5 20.5,14.5 Z"/></g>
<g><path style="opacity:1" fill="#fefffe" d="M 6.5,20.5 C 9.47011,20.7458 10.8034,22.4124 10.5,25.5C 9.16667,25.5 7.83333,25.5 6.5,25.5C 6.5,23.8333 6.5,22.1667 6.5,20.5 Z"/></g>
<g><path style="opacity:1" fill="#fefffe" d="M 11.5,21.5 C 13.6074,20.5318 15.9407,20.1984 18.5,20.5C 18.5,21.5 18.5,22.5 18.5,23.5C 16.5328,23.2606 14.6995,23.5939 13,24.5C 12.7679,23.2625 12.2679,22.2625 11.5,21.5 Z"/></g>
<g><path style="opacity:1" fill="#fefffe" d="M 31.5,26.5 C 28.4411,26.2034 25.9411,24.8701 24,22.5C 23.6987,25.5071 23.8654,28.5071 24.5,31.5C 23.1779,31.33 22.0113,31.6634 21,32.5C 20.1075,29.5475 20.6075,26.8808 22.5,24.5C 21.1468,23.4763 20.4802,22.143 20.5,20.5C 22.5,20.5 24.5,20.5 26.5,20.5C 27.1667,24.5 27.8333,24.5 28.5,20.5C 29.8333,20.5 31.1667,20.5 32.5,20.5C 32.4828,22.5648 32.1495,24.5648 31.5,26.5 Z"/></g>
<g><path style="opacity:1" fill="#fefffe" d="M 14.5,25.5 C 15.8333,25.5 17.1667,25.5 18.5,25.5C 18.5,27.5 18.5,29.5 18.5,31.5C 14.6309,31.0818 13.2976,29.0818 14.5,25.5 Z"/></g>
<g><path style="opacity:1" fill="#fefffe" d="M 9.5,28.5 C 9.55999,27.9569 9.89333,27.6236 10.5,27.5C 12.9588,30.7697 12.6254,31.103 9.5,28.5 Z"/></g>
</svg>
